<?xml version="1.0" encoding="UTF-8"?>
<svg xmlns="http://www.w3.org/2000/svg" xmlns:xlink="http://www.w3.org/1999/xlink" width="32px" height="32px" viewBox="0 0 32 32" version="1.1">
<g id="surface1">
<path style=" stroke:none;fill-rule:nonzero;fill:rgb(0%,0%,0%);fill-opacity:1;" d="M 10.253906 0 C 10.09375 0.00390625 9.917969 0.0664062 9.722656 0.222656 C 9.238281 0.0351562 8.769531 -0.03125 8.347656 0.351562 C 7.699219 0.265625 7.488281 0.4375 7.332031 0.640625 C 7.1875 0.640625 6.265625 0.496094 5.84375 1.125 C 4.78125 1 4.445312 1.75 4.824219 2.453125 C 4.605469 2.789062 4.382812 3.121094 4.890625 3.761719 C 4.710938 4.117188 4.820312 4.503906 5.246094 4.972656 C 5.132812 5.476562 5.351562 5.828125 5.746094 6.105469 C 5.671875 6.792969 6.375 7.191406 6.585938 7.332031 C 6.667969 7.734375 6.835938 8.109375 7.636719 8.320312 C 7.769531 8.914062 8.253906 9.019531 8.71875 9.144531 C 7.175781 10.039062 5.851562 11.222656 5.859375 14.121094 L 5.632812 14.523438 C 3.863281 15.601562 2.269531 19.066406 4.761719 21.878906 C 4.921875 22.761719 5.195312 23.394531 5.4375 24.09375 C 5.800781 26.914062 8.175781 28.234375 8.800781 28.390625 C 9.71875 29.089844 10.695312 29.753906 12.015625 30.21875 C 13.261719 31.503906 14.613281 31.992188 15.96875 31.992188 C 15.988281 31.992188 18.738281 31.503906 19.984375 30.21875 C 21.304688 29.753906 22.28125 29.089844 23.199219 28.390625 C 23.824219 28.234375 26.199219 26.914062 26.5625 24.09375 C 26.804688 23.394531 27.078125 22.761719 27.238281 21.878906 C 29.730469 19.066406 28.136719 15.601562 26.367188 14.523438 L 26.140625 14.121094 C 26.148438 11.222656 24.824219 10.039062 23.28125 9.140625 C 23.746094 9.015625 24.230469 8.914062 24.363281 8.316406 C 25.164062 8.109375 25.332031 7.730469 25.414062 7.332031 C 25.625 7.191406 26.328125 6.789062 26.253906 6.105469 C 26.648438 5.828125 26.867188 5.472656 26.753906 4.972656 C 27.179688 4.503906 27.289062 4.117188 27.109375 3.761719 C 27.617188 3.121094 27.390625 2.789062 27.175781 2.453125 C 27.554688 1.75 27.21875 1 26.15625 1.125 C 25.734375 0.496094 24.8125 0.636719 24.667969 0.640625 C 24.507812 0.4375 24.300781 0.265625 23.652344 0.347656 C 23.230469 -0.03125 22.761719 0.0351562 22.277344 0.222656 C 21.703125 -0.234375 21.324219 0.132812 20.886719 0.269531 C 20.191406 0.0429688 20.03125 0.351562 19.691406 0.480469 C 18.933594 0.320312 18.703125 0.667969 18.335938 1.035156 L 17.914062 1.027344 C 16.769531 1.703125 16.199219 3.078125 16 3.78125 C 15.796875 3.078125 15.230469 1.703125 14.085938 1.027344 L 13.664062 1.035156 C 13.296875 0.667969 13.066406 0.320312 12.308594 0.480469 C 11.964844 0.351562 11.808594 0.0429688 11.109375 0.269531 C 10.824219 0.179688 10.5625 -0.0078125 10.253906 0 L 2.398438 13.796875 "/>
<path style=" stroke:none;fill-rule:nonzero;fill:rgb(45.882353%,66.274512%,15.686275%);fill-opacity:1;" d="M 7.976562 2.96875 C 11.011719 4.535156 12.777344 5.800781 13.746094 6.878906 C 13.25 8.867188 10.667969 8.957031 9.722656 8.898438 C 9.914062 8.808594 10.078125 8.703125 10.132812 8.535156 C 9.898438 8.367188 9.054688 8.519531 8.46875 8.1875 C 8.695312 8.140625 8.800781 8.097656 8.90625 7.929688 C 8.351562 7.753906 7.753906 7.601562 7.402344 7.308594 C 7.59375 7.308594 7.769531 7.351562 8.015625 7.179688 C 7.519531 6.910156 6.988281 6.699219 6.578125 6.289062 C 6.835938 6.285156 7.113281 6.289062 7.191406 6.191406 C 6.738281 5.910156 6.355469 5.597656 6.035156 5.253906 C 6.394531 5.300781 6.546875 5.261719 6.636719 5.199219 C 6.292969 4.847656 5.855469 4.550781 5.648438 4.117188 C 5.914062 4.207031 6.160156 4.242188 6.335938 4.109375 C 6.21875 3.84375 5.71875 3.6875 5.429688 3.074219 C 5.710938 3.101562 6.007812 3.136719 6.070312 3.074219 C 5.9375 2.542969 5.714844 2.242188 5.496094 1.933594 C 6.097656 1.925781 7.007812 1.9375 6.964844 1.886719 L 6.59375 1.507812 C 7.183594 1.347656 7.78125 1.53125 8.21875 1.667969 C 8.414062 1.511719 8.214844 1.316406 7.976562 1.117188 C 8.476562 1.183594 8.925781 1.300781 9.335938 1.457031 C 9.550781 1.261719 9.191406 1.0625 9.019531 0.867188 C 9.789062 1.015625 10.117188 1.21875 10.441406 1.425781 C 10.675781 1.199219 10.453125 1.007812 10.296875 0.8125 C 10.878906 1.027344 11.175781 1.304688 11.492188 1.578125 C 11.597656 1.433594 11.761719 1.328125 11.566406 0.980469 C 11.976562 1.21875 12.289062 1.5 12.519531 1.8125 C 12.773438 1.652344 12.671875 1.429688 12.671875 1.222656 C 13.101562 1.570312 13.375 1.945312 13.707031 2.304688 C 13.773438 2.257812 13.832031 2.089844 13.882812 1.828125 C 14.90625 2.820312 16.355469 5.324219 14.253906 6.3125 C 12.46875 4.84375 10.339844 3.773438 7.976562 2.96875 M 24.089844 2.96875 C 21.054688 4.535156 19.289062 5.800781 18.320312 6.878906 C 18.816406 8.867188 21.402344 8.957031 22.347656 8.898438 C 22.152344 8.808594 21.992188 8.703125 21.933594 8.535156 C 22.171875 8.367188 23.011719 8.519531 23.597656 8.1875 C 23.375 8.140625 23.269531 8.097656 23.164062 7.929688 C 23.71875 7.753906 24.316406 7.601562 24.664062 7.308594 C 24.476562 7.308594 24.300781 7.351562 24.050781 7.179688 C 24.546875 6.910156 25.078125 6.699219 25.488281 6.289062 C 25.234375 6.285156 24.957031 6.289062 24.875 6.191406 C 25.332031 5.910156 25.714844 5.597656 26.03125 5.253906 C 25.671875 5.300781 25.519531 5.261719 25.433594 5.199219 C 25.777344 4.847656 26.210938 4.550781 26.417969 4.117188 C 26.152344 4.207031 25.910156 4.242188 25.734375 4.109375 C 25.847656 3.84375 26.347656 3.6875 26.636719 3.074219 C 26.355469 3.101562 26.058594 3.136719 26 3.074219 C 26.128906 2.542969 26.355469 2.242188 26.574219 1.933594 C 25.972656 1.925781 25.0625 1.9375 25.101562 1.886719 L 25.472656 1.503906 C 24.886719 1.347656 24.285156 1.53125 23.847656 1.667969 C 23.652344 1.511719 23.851562 1.316406 24.09375 1.117188 C 23.59375 1.183594 23.140625 1.300781 22.734375 1.457031 C 22.515625 1.261719 22.875 1.0625 23.050781 0.867188 C 22.277344 1.011719 21.953125 1.21875 21.628906 1.425781 C 21.390625 1.199219 21.613281 1.007812 21.773438 0.8125 C 21.191406 1.027344 20.890625 1.304688 20.578125 1.578125 C 20.46875 1.433594 20.304688 1.328125 20.503906 0.980469 C 20.089844 1.21875 19.78125 1.5 19.550781 1.8125 C 19.292969 1.648438 19.398438 1.429688 19.398438 1.222656 C 18.96875 1.570312 18.695312 1.941406 18.363281 2.304688 C 18.296875 2.257812 18.238281 2.089844 18.183594 1.828125 C 17.160156 2.820312 15.714844 5.324219 17.8125 6.3125 C 19.597656 4.839844 21.730469 3.769531 24.09375 2.96875 L 24.089844 2.96875 "/>
<path style=" stroke:none;fill-rule:nonzero;fill:rgb(73.725492%,6.666667%,25.882354%);fill-opacity:1;" d="M 19.710938 23.1875 C 19.722656 25.039062 18.101562 26.546875 16.09375 26.558594 C 14.085938 26.566406 12.445312 25.074219 12.4375 23.222656 C 12.4375 23.210938 12.4375 23.199219 12.4375 23.1875 C 12.425781 21.332031 14.046875 19.824219 16.054688 19.8125 C 18.0625 19.804688 19.703125 21.296875 19.710938 23.152344 L 19.710938 23.1875 M 13.96875 13.601562 C 15.476562 14.589844 15.75 16.828125 14.574219 18.601562 C 13.402344 20.375 11.230469 21.015625 9.722656 20.027344 C 8.214844 19.039062 7.945312 16.800781 9.117188 15.027344 C 10.289062 13.253906 12.460938 12.617188 13.96875 13.601562 M 18.039062 13.425781 C 16.53125 14.410156 16.257812 16.648438 17.429688 18.425781 C 18.601562 20.199219 20.773438 20.835938 22.28125 19.847656 C 23.789062 18.859375 24.0625 16.621094 22.890625 14.847656 C 21.71875 13.074219 19.546875 12.4375 18.039062 13.425781 M 6.433594 15.21875 C 8.0625 14.78125 6.984375 21.949219 5.660156 21.363281 C 4.203125 20.191406 3.734375 16.757812 6.433594 15.21875 M 25.242188 15.128906 C 23.617188 14.691406 24.695312 21.863281 26.019531 21.273438 C 27.472656 20.101562 27.945312 16.671875 25.242188 15.128906 M 19.714844 9.789062 C 22.523438 9.316406 24.859375 10.984375 24.765625 14.03125 C 24.671875 15.195312 18.679688 9.964844 19.714844 9.789062 M 11.953125 9.699219 C 9.144531 9.226562 6.808594 10.894531 6.902344 13.941406 C 6.992188 15.109375 12.988281 9.875 11.953125 9.699219 M 15.988281 8.988281 C 14.3125 8.945312 12.703125 10.234375 12.699219 10.980469 C 12.695312 11.886719 14.023438 12.816406 16 12.839844 C 18.015625 12.855469 19.304688 12.097656 19.308594 11.160156 C 19.316406 10.097656 17.476562 8.972656 15.988281 8.988281 M 16.089844 27.601562 C 17.550781 27.535156 19.511719 28.070312 19.515625 28.78125 C 19.539062 29.46875 17.738281 31.023438 15.992188 30.996094 C 14.1875 31.074219 12.414062 29.515625 12.4375 28.972656 C 12.410156 28.183594 14.636719 27.5625 16.089844 27.601562 M 10.691406 23.398438 C 11.730469 24.652344 12.207031 26.855469 11.339844 27.503906 C 10.515625 28 8.523438 27.792969 7.105469 25.757812 C 6.148438 24.046875 6.269531 22.308594 6.941406 21.796875 C 7.945312 21.1875 9.496094 22.011719 10.691406 23.398438 M 21.28125 23 C 20.152344 24.320312 19.527344 26.722656 20.347656 27.5 C 21.132812 28.101562 23.242188 28.015625 24.800781 25.855469 C 25.929688 24.40625 25.550781 21.980469 24.90625 21.339844 C 23.945312 20.597656 22.566406 21.546875 21.28125 23 "/>
</g>
</svg>
